<svg xmlns="http://www.w3.org/2000/svg" xmlns:xlink="http://www.w3.org/1999/xlink" width="30" height="30" viewBox="0 0 30 30">
    <defs>
        <circle id="hb8n3vftpa" cx="14.769" cy="14.769" r="14.769"/>
    </defs>
    <g fill="none" fill-rule="evenodd">
        <g>
            <g>
                <g>
                    <g>
                        <g transform="translate(-773.000000, -657.000000) translate(738.000000, 79.000000) translate(25.000000, 531.000000) translate(9.000000, 46.000000) translate(1.230769, 1.230769)">
                            <mask id="n3y6t3nmvb" fill="#fff">
                                <use xlink:href="#hb8n3vftpa"/>
                            </mask>
                            <use fill="#F0F4FA" xlink:href="#hb8n3vftpa"/>
                            <path fill="#ADCCEF" d="M18.18 19.63c-.908-.278-1.533-1.14-1.533-2.102v-1.019c0-.115.057-.218.162-.267 1.293-.598 2.326-1.779 2.85-3.243.043-.122.16-.201.29-.194.337.016.788-.593.944-1.116.148-.496-.134-1.02-.629-1.167l-.021-.006c-.122-.037-.206-.148-.209-.276-.051-3.082-2.239-5.317-5.202-5.317-2.948 0-5.135 2.221-5.202 5.281-.002.127-.087.239-.209.275l-.144.044c-.24.072-.438.233-.556.454-.119.22-.145.473-.074.714.16.536.657 1.163 1.032 1.107.139-.021.27.06.317.192.522 1.469 1.56 2.654 2.857 3.255.105.048.159.153.159.267v1.018c0 .963-.623 1.824-1.532 2.104-4.718 1.444-7.673 5.335-7.788 10.212h22.154c-.111-4.877-3.021-8.79-7.665-10.216z" mask="url(#n3y6t3nmvb)"/>
                        </g>
                    </g>
                </g>
            </g>
        </g>
    </g>
</svg>
