<svg xmlns="http://www.w3.org/2000/svg" width="16" height="16" viewBox="0 0 16 16">
    <g fill="none" fill-rule="evenodd">
        <g fill="#3e4a60">
            <g>
                <g>
                    <g>
                        <g>
                            <path d="M11.829.036c.306 0 .554.248.554.554v1.054h1.86c.856.003 1.55.694 1.554 1.55V14.4c-.005.855-.7 1.545-1.554 1.545H1.757c-.855 0-1.55-.69-1.554-1.545V3.193C.208 2.338.9 1.647 1.757 1.644h1.675V.59c0-.306.249-.554.554-.554.306 0 .554.248.554.554v1.054h6.734V.59c0-.306.249-.554.555-.554zm2.883 5.946H1.243v8.379c0 .253.198.462.45.477H14.23c.127 0 .25-.05.34-.139.09-.09.142-.21.142-.338V5.982zM2.6 12.256h2.512c.048 0 .094.004.14.014.245.067.403.304.371.555-.032.252-.244.441-.497.445H2.685c-.143.014-.285-.033-.391-.13-.106-.096-.166-.233-.166-.376 0-.144.06-.28.166-.377.106-.096.248-.144.391-.13zm6.526-2.4c.173 0 .334.088.428.235.044.058.073.125.085.197.021.148-.023.297-.122.41-.099.111-.242.175-.391.171H6.693c-.134 0-.262-.056-.355-.153-.093-.096-.144-.226-.14-.36.005-.274.226-.495.5-.5zm-3.995 0c.28.007.502.238.5.518-.003.135-.058.263-.156.356-.098.093-.228.143-.363.14H2.666c-.278-.006-.502-.235-.5-.514.008-.28.239-.503.519-.5zm0-2.306c.273.017.485.244.481.518-.001.134-.058.262-.155.355-.097.093-.228.144-.362.14H2.666c-.278-.005-.502-.234-.5-.513.008-.28.239-.503.519-.5zm3.995 0c.13.002.254.053.347.143.09.08.148.189.166.307.016.145-.031.29-.13.397-.098.108-.237.168-.383.166H6.693c-.143.003-.282-.055-.382-.158-.055-.057-.094-.129-.113-.207-.044-.155-.012-.322.087-.45.098-.128.251-.202.413-.198zm4.005 0c.056 0 .112.008.166.027.243.074.392.317.35.566-.042.25-.264.43-.516.42h-2.428c-.057.003-.113-.005-.167-.022-.236-.08-.38-.32-.338-.567.041-.246.255-.426.505-.424zm-1.838-4.798H4.536v1.036c0 .307-.248.554-.554.554-.306 0-.554-.247-.554-.554V2.753H1.692c-.25.015-.448.222-.45.473V4.97h13.464V3.225c0-.126-.052-.248-.143-.337-.09-.088-.212-.137-.339-.136h-1.824v1.036c0 .307-.248.554-.554.554-.306 0-.554-.247-.554-.554V2.752z" transform="translate(-1226 -844) translate(806 727) translate(242 79) translate(164 26) translate(14 12)"/>
                        </g>
                    </g>
                </g>
            </g>
        </g>
    </g>
</svg>
